# xmcd
#
# Track frame offsets: 
#        150
#        13920
#        32169
#        45560
#        58431
#        77023
#        91130
#        105939
#        120107
#
# Disc length: 1786 seconds
#
# Revision: 1
# Processed by: cddbd v1.5.2PL0 Copyright (c) Steve Scherf et al.
# Submitted via: ExactAudioCopyFreeDBPlugin 1.0
#
DISCID=6406f809
DTITLE=Ben Moore - Slow Dancin'
DYEAR=1979
DGENRE=Soul
TTITLE0=I've Got A Winner In You
TTITLE1=Slow Dancing (Swaying To The Music)
TTITLE2=Got To Go See If I Can't Get Mama
TTITLE3=Keeping In Touch
TTITLE4=Get Closer
TTITLE5=Slippin' Away
TTITLE6=Love Music
TTITLE7=I Ain't Got To Love Nobody Else
TTITLE8=Easy As Pie
EXTD=
EXTT0=
EXTT1=
EXTT2=
EXTT3=
EXTT4=
EXTT5=
EXTT6=
EXTT7=
EXTT8=
PLAYORDER=
